<mxfile host="app.diagrams.net" agent="Mozilla/5.0 (Macintosh; Intel Mac OS X 10_15_7) AppleWebKit/537.36 (KHTML, like Gecko) Chrome/128.0.0.0 Safari/537.36" version="24.7.16">
  <diagram name="第 1 页" id="8Y7HWVvgqwm-M5wttnyH">
    <mxGraphModel dx="1748" dy="1358" grid="1" gridSize="10" guides="1" tooltips="1" connect="1" arrows="1" fold="1" page="1" pageScale="1" pageWidth="827" pageHeight="1169" math="0" shadow="0">
      <root>
        <mxCell id="0" />
        <mxCell id="1" parent="0" />
        <mxCell id="Q0tnMBf9tTAo9GiRD6wi-1" value="10.100.0.2" style="text;whiteSpace=wrap;" vertex="1" parent="1">
          <mxGeometry x="-5" y="390" width="90" height="40" as="geometry" />
        </mxCell>
        <mxCell id="Q0tnMBf9tTAo9GiRD6wi-2" value="192.241.177.242" style="text;whiteSpace=wrap;" vertex="1" parent="1">
          <mxGeometry x="-20" y="350" width="120" height="40" as="geometry" />
        </mxCell>
        <mxCell id="Q0tnMBf9tTAo9GiRD6wi-3" value="NYC2" style="text;html=1;align=center;verticalAlign=middle;resizable=0;points=[];autosize=1;strokeColor=none;fillColor=none;" vertex="1" parent="1">
          <mxGeometry x="40" y="258" width="60" height="30" as="geometry" />
        </mxCell>
        <mxCell id="Q0tnMBf9tTAo9GiRD6wi-4" value="192.241.177.97" style="text;whiteSpace=wrap;" vertex="1" parent="1">
          <mxGeometry x="160" y="350" width="120" height="40" as="geometry" />
        </mxCell>
        <mxCell id="Q0tnMBf9tTAo9GiRD6wi-5" value="10.100.0.3" style="text;whiteSpace=wrap;" vertex="1" parent="1">
          <mxGeometry x="160" y="390" width="90" height="40" as="geometry" />
        </mxCell>
        <mxCell id="Q0tnMBf9tTAo9GiRD6wi-6" value="SFO3" style="text;html=1;align=center;verticalAlign=middle;resizable=0;points=[];autosize=1;strokeColor=none;fillColor=none;" vertex="1" parent="1">
          <mxGeometry x="615" y="238" width="50" height="30" as="geometry" />
        </mxCell>
        <mxCell id="Q0tnMBf9tTAo9GiRD6wi-7" value="137.184.235.139" style="text;whiteSpace=wrap;" vertex="1" parent="1">
          <mxGeometry x="420" y="350" width="120" height="40" as="geometry" />
        </mxCell>
        <mxCell id="Q0tnMBf9tTAo9GiRD6wi-8" value="10.124.0.3" style="text;whiteSpace=wrap;" vertex="1" parent="1">
          <mxGeometry x="430" y="390" width="90" height="40" as="geometry" />
        </mxCell>
        <mxCell id="Q0tnMBf9tTAo9GiRD6wi-9" value="147.182.228.24" style="text;whiteSpace=wrap;" vertex="1" parent="1">
          <mxGeometry x="610" y="350" width="120" height="40" as="geometry" />
        </mxCell>
        <mxCell id="Q0tnMBf9tTAo9GiRD6wi-10" value="10.124.0.5" style="text;whiteSpace=wrap;" vertex="1" parent="1">
          <mxGeometry x="615" y="390" width="90" height="40" as="geometry" />
        </mxCell>
        <mxCell id="Q0tnMBf9tTAo9GiRD6wi-11" value="ubuntu-s-2vcpu-4gb-nyc2-02" style="text;whiteSpace=wrap;" vertex="1" parent="1">
          <mxGeometry x="-40" y="430" width="190" height="40" as="geometry" />
        </mxCell>
        <mxCell id="Q0tnMBf9tTAo9GiRD6wi-12" value="ubuntu-s-2vcpu-4gb-nyc2-01" style="text;whiteSpace=wrap;" vertex="1" parent="1">
          <mxGeometry x="140" y="430" width="190" height="40" as="geometry" />
        </mxCell>
        <mxCell id="Q0tnMBf9tTAo9GiRD6wi-13" value="ubuntu-s-2vcpu-4gb-sfo3-01" style="text;whiteSpace=wrap;" vertex="1" parent="1">
          <mxGeometry x="370" y="430" width="180" height="40" as="geometry" />
        </mxCell>
        <mxCell id="Q0tnMBf9tTAo9GiRD6wi-14" value="luke-centos-s-2vcpu-4gb-amd-sfo3-01" style="text;whiteSpace=wrap;" vertex="1" parent="1">
          <mxGeometry x="560" y="430" width="240" height="40" as="geometry" />
        </mxCell>
      </root>
    </mxGraphModel>
  </diagram>
</mxfile>
